<svg width="16" height="18" viewBox="0 0 16 18" fill="none" xmlns="http://www.w3.org/2000/svg">
<path fill-rule="evenodd" clip-rule="evenodd" d="M3 5.66699C3 2.90557 5.23858 0.666992 8 0.666992C10.7614 0.666992 13 2.90557 13 5.66699V6.6256C13.2355 6.6772 13.4615 6.75235 13.68 6.86364C14.3072 7.18322 14.8171 7.69315 15.1367 8.32036C15.3428 8.7248 15.4249 9.15539 15.4632 9.62381C15.5 10.0748 15.5 10.6284 15.5 11.2992V12.5348C15.5 13.2056 15.5 13.7592 15.4632 14.2102C15.4249 14.6786 15.3428 15.1092 15.1367 15.5136C14.8171 16.1408 14.3072 16.6508 13.68 16.9703C13.2755 17.1764 12.8449 17.2586 12.3765 17.2968C11.9255 17.3337 11.3719 17.3337 10.7011 17.3337H5.29894C4.62812 17.3337 4.07448 17.3337 3.62348 17.2968C3.15507 17.2586 2.72448 17.1764 2.32003 16.9703C1.69283 16.6508 1.18289 16.1408 0.863313 15.5136C0.657237 15.1092 0.5751 14.6786 0.536829 14.2102C0.499982 13.7592 0.49999 13.2056 0.5 12.5348V11.2992C0.49999 10.6284 0.499982 10.0748 0.536829 9.62381C0.5751 9.15539 0.657237 8.7248 0.863313 8.32036C1.18289 7.69315 1.69283 7.18322 2.32003 6.86364C2.53845 6.75235 2.76449 6.67721 3 6.6256V5.66699ZM11.3333 5.66699V6.50168H4.66667V5.66699C4.66667 3.82604 6.15905 2.33366 8 2.33366C9.84095 2.33366 11.3333 3.82604 11.3333 5.66699ZM8.83333 11.0837C8.83333 10.6234 8.46024 10.2503 8 10.2503C7.53976 10.2503 7.16667 10.6234 7.16667 11.0837V12.7503C7.16667 13.2106 7.53976 13.5837 8 13.5837C8.46024 13.5837 8.83333 13.2106 8.83333 12.7503V11.0837Z" fill="#6C7275" fill-opacity="0.5"/>
</svg>
