<svg width="20" height="16" viewBox="0 0 20 16" fill="none" xmlns="http://www.w3.org/2000/svg">
<path d="M1.77663 4.81786C1.52669 4.63933 1.40172 4.55007 1.29276 4.53848C1.12982 4.52114 0.966526 4.60518 0.885923 4.74784C0.832025 4.84324 0.832027 4.99513 0.832032 5.29891V10.7011C0.832021 11.3719 0.832013 11.9255 0.86886 12.3765C0.907131 12.8449 0.989268 13.2755 1.19534 13.68C1.51492 14.3072 2.02486 14.8171 2.65206 15.1367C3.05651 15.3428 3.4871 15.4249 3.95551 15.4632C4.4065 15.5 4.96013 15.5 5.63093 15.5H14.3665C15.0373 15.5 15.5909 15.5 16.0419 15.4632C16.5103 15.4249 16.9409 15.3428 17.3453 15.1367C17.9725 14.8171 18.4825 14.3072 18.8021 13.68C19.0081 13.2755 19.0903 12.8449 19.1285 12.3765C19.1654 11.9255 19.1654 11.3719 19.1654 10.7011V5.2989C19.1654 5.15001 19.1654 5.07557 19.1517 5.02358C19.0901 4.78856 18.8346 4.65468 18.6062 4.73776C18.5557 4.75614 18.4937 4.79905 18.3698 4.88487L11.918 9.35161C11.4605 9.6693 11.0589 9.94823 10.6026 10.0588C10.2035 10.1556 9.78672 10.1525 9.38909 10.0499C8.93447 9.93261 8.53697 9.6478 8.08424 9.32342L1.77663 4.81786Z" fill="#6C7275" fill-opacity="0.5"/>
<path d="M18.4427 2.80727C18.5965 2.70077 18.6735 2.64752 18.7207 2.56187C18.7574 2.49536 18.7784 2.39003 18.77 2.31454C18.7592 2.21733 18.7178 2.15314 18.6352 2.02478C18.3186 1.53304 17.8631 1.12713 17.3453 0.863313C16.9409 0.657237 16.5103 0.5751 16.0419 0.536829C15.5909 0.499982 15.0373 0.49999 14.3665 0.5H5.63095C4.96015 0.49999 4.4065 0.499982 3.95551 0.536829C3.4871 0.5751 3.05651 0.657237 2.65206 0.863313C2.1862 1.10068 1.78353 1.44384 1.47734 1.86112C1.381 1.99241 1.33284 2.05805 1.31697 2.15767C1.30456 2.23558 1.32189 2.34381 1.358 2.41395C1.40418 2.50364 1.48427 2.56085 1.64447 2.67527L8.95706 7.89856C9.56308 8.33142 9.69168 8.40674 9.80548 8.4361C9.93803 8.4703 10.077 8.47132 10.21 8.43908C10.3242 8.41139 10.4539 8.33797 11.0662 7.91406L18.4427 2.80727Z" fill="#6C7275" fill-opacity="0.5"/>
</svg>
